<svg xmlns="http://www.w3.org/2000/svg" xmlns:xlink="http://www.w3.org/1999/xlink" width="1000" zoomAndPan="magnify" viewBox="0 0 750 749.999995" height="1000" preserveAspectRatio="xMidYMid meet" version="1.0"><rect x="-75" width="900" fill="#ffffff" y="-74.999999" height="899.999994" fill-opacity="1"/><rect x="-75" width="900" fill="#ffffff" y="-74.999999" height="899.999994" fill-opacity="1"/><path fill="#000000" d="M 659.539062 210.527344 C 569.078125 52.632812 368.421875 0 210.527344 90.460938 C 52.632812 180.921875 0 381.578125 90.460938 539.472656 C 180.921875 697.367188 383.222656 750 539.472656 659.539062 C 697.367188 569.078125 750 368.421875 659.539062 210.527344 Z M 506.578125 603.617188 C 379.933594 675.988281 220.394531 633.222656 146.382812 506.578125 C 74.011719 381.578125 118.421875 220.394531 243.421875 146.382812 C 370.066406 74.011719 529.605469 116.777344 603.617188 243.421875 C 675.988281 370.066406 633.222656 529.605469 506.578125 603.617188 Z M 493.421875 361.84375 L 320.722656 261.511719 C 300.988281 254.933594 297.699219 258.222656 292.761719 277.960938 L 294.40625 476.972656 C 297.699219 496.710938 304.277344 500 322.367188 493.421875 L 493.421875 394.738281 C 508.222656 383.222656 508.222656 373.355469 493.421875 361.84375 Z M 493.421875 361.84375 " fill-opacity="1" fill-rule="nonzero"/></svg>